<svg width="32" height="32" viewBox="0 0 32 32" fill="none" xmlns="http://www.w3.org/2000/svg">
<path d="M6 13V25.75C6 26.3467 6.23705 26.919 6.65901 27.341C7.08097 27.7629 7.65326 28 8.25 28H24.75C25.3467 28 25.919 27.7629 26.341 27.341C26.7629 26.919 27 26.3467 27 25.75V13H6ZM21.375 21.4375C21.375 21.5867 21.3157 21.7298 21.2102 21.8352C21.1048 21.9407 20.9617 22 20.8125 22H18V24.8125C18 24.9617 17.9407 25.1048 17.8352 25.2102C17.7298 25.3157 17.5867 25.375 17.4375 25.375H15.5625C15.4133 25.375 15.2702 25.3157 15.1648 25.2102C15.0593 25.1048 15 24.9617 15 24.8125V22H12.1875C12.0383 22 11.8952 21.9407 11.7898 21.8352C11.6843 21.7298 11.625 21.5867 11.625 21.4375V19.5625C11.625 19.4133 11.6843 19.2702 11.7898 19.1648C11.8952 19.0593 12.0383 19 12.1875 19H15V16.1875C15 16.0383 15.0593 15.8952 15.1648 15.7898C15.2702 15.6843 15.4133 15.625 15.5625 15.625H17.4375C17.5867 15.625 17.7298 15.6843 17.8352 15.7898C17.9407 15.8952 18 16.0383 18 16.1875V19H20.8125C20.9617 19 21.1048 19.0593 21.2102 19.1648C21.3157 19.2702 21.375 19.4133 21.375 19.5625V21.4375ZM20.25 10H21.75C21.9489 10 22.1397 9.92098 22.2803 9.78033C22.421 9.63968 22.5 9.44891 22.5 9.25V4.75C22.5 4.55109 22.421 4.36032 22.2803 4.21967C22.1397 4.07902 21.9489 4 21.75 4H20.25C20.0511 4 19.8603 4.07902 19.7197 4.21967C19.579 4.36032 19.5 4.55109 19.5 4.75V9.25C19.5 9.44891 19.579 9.63968 19.7197 9.78033C19.8603 9.92098 20.0511 10 20.25 10ZM11.25 10H12.75C12.9489 10 13.1397 9.92098 13.2803 9.78033C13.421 9.63968 13.5 9.44891 13.5 9.25V4.75C13.5 4.55109 13.421 4.36032 13.2803 4.21967C13.1397 4.07902 12.9489 4 12.75 4H11.25C11.0511 4 10.8603 4.07902 10.7197 4.21967C10.579 4.36032 10.5 4.55109 10.5 4.75V9.25C10.5 9.44891 10.579 9.63968 10.7197 9.78033C10.8603 9.92098 11.0511 10 11.25 10Z" fill="white"/>
<path d="M20.8125 19H18V16.1875C18 16.0383 17.9407 15.8952 17.8352 15.7898C17.7298 15.6843 17.5867 15.625 17.4375 15.625H15.5625C15.4133 15.625 15.2702 15.6843 15.1648 15.7898C15.0593 15.8952 15 16.0383 15 16.1875V19H12.1875C12.0383 19 11.8952 19.0593 11.7898 19.1648C11.6843 19.2702 11.625 19.4133 11.625 19.5625V21.4375C11.625 21.5867 11.6843 21.7298 11.7898 21.8352C11.8952 21.9407 12.0383 22 12.1875 22H15V24.8125C15 24.9617 15.0593 25.1048 15.1648 25.2102C15.2702 25.3157 15.4133 25.375 15.5625 25.375H17.4375C17.5867 25.375 17.7298 25.3157 17.8352 25.2102C17.9407 25.1048 18 24.9617 18 24.8125V22H20.8125C20.9617 22 21.1048 21.9407 21.2102 21.8352C21.3157 21.7298 21.375 21.5867 21.375 21.4375V19.5625C21.375 19.4133 21.3157 19.2702 21.2102 19.1648C21.1048 19.0593 20.9617 19 20.8125 19ZM24.75 7H22.5V9.25C22.5 9.44891 22.421 9.63968 22.2803 9.78033C22.1397 9.92098 21.9489 10 21.75 10H20.25C20.0511 10 19.8603 9.92098 19.7197 9.78033C19.579 9.63968 19.5 9.44891 19.5 9.25V7H13.5V9.25C13.5 9.44891 13.421 9.63968 13.2803 9.78033C13.1397 9.92098 12.9489 10 12.75 10H11.25C11.0511 10 10.8603 9.92098 10.7197 9.78033C10.579 9.63968 10.5 9.44891 10.5 9.25V7H8.25C7.65326 7 7.08097 7.23705 6.65901 7.65901C6.23705 8.08097 6 8.65326 6 9.25V13H27V9.25C27 8.65326 26.7629 8.08097 26.341 7.65901C25.919 7.23705 25.3467 7 24.75 7V7Z" fill="#E74C3C"/>
</svg>
