<svg width="32" height="32" viewBox="0 0 32 32" fill="none" xmlns="http://www.w3.org/2000/svg">
<path opacity="0.4" d="M22.75 7H19C19.7956 7 20.5587 7.31607 21.1213 7.87868C21.6839 8.44129 22 9.20435 22 10H10C10 9.20435 10.3161 8.44129 10.8787 7.87868C11.4413 7.31607 12.2044 7 13 7H9.25C8.65326 7 8.08097 7.23705 7.65901 7.65901C7.23705 8.08097 7 8.65326 7 9.25V25.75C7 26.3467 7.23705 26.919 7.65901 27.341C8.08097 27.7629 8.65326 28 9.25 28H22.75C23.3467 28 23.919 27.7629 24.341 27.341C24.7629 26.919 25 26.3467 25 25.75V9.25C25 8.65326 24.7629 8.08097 24.341 7.65901C23.919 7.23705 23.3467 7 22.75 7V7ZM10.075 15.3156L10.6703 14.725C10.6937 14.7016 10.7215 14.683 10.752 14.6703C10.7826 14.6577 10.8153 14.6511 10.8484 14.6511C10.8815 14.6511 10.9143 14.6577 10.9449 14.6703C10.9754 14.683 11.0032 14.7016 11.0266 14.725L11.9922 15.7L14.2234 13.4875C14.2468 13.4641 14.2746 13.4455 14.3051 13.4328C14.3357 13.4202 14.3685 13.4136 14.4016 13.4136C14.4347 13.4136 14.4674 13.4202 14.498 13.4328C14.5285 13.4455 14.5563 13.4641 14.5797 13.4875L15.1703 14.0828C15.1937 14.1062 15.2123 14.134 15.225 14.1645C15.2376 14.1951 15.2442 14.2278 15.2442 14.2609C15.2442 14.294 15.2376 14.3268 15.225 14.3574C15.2123 14.3879 15.1937 14.4157 15.1703 14.4391L12.1609 17.4203C12.1376 17.4437 12.1098 17.4623 12.0792 17.475C12.0487 17.4876 12.0159 17.4942 11.9828 17.4942C11.9497 17.4942 11.917 17.4876 11.8864 17.475C11.8558 17.4623 11.8281 17.4437 11.8047 17.4203L10.075 15.6719C10.0516 15.6485 10.033 15.6207 10.0203 15.5902C10.0077 15.5596 10.0011 15.5268 10.0011 15.4937C10.0011 15.4607 10.0077 15.4279 10.0203 15.3973C10.033 15.3668 10.0516 15.339 10.075 15.3156V15.3156ZM11.5 22.375C11.2775 22.375 11.06 22.309 10.875 22.1854C10.69 22.0618 10.5458 21.8861 10.4606 21.6805C10.3755 21.475 10.3532 21.2488 10.3966 21.0305C10.44 20.8123 10.5472 20.6118 10.7045 20.4545C10.8618 20.2972 11.0623 20.19 11.2805 20.1466C11.4988 20.1032 11.725 20.1255 11.9305 20.2106C12.1361 20.2958 12.3118 20.44 12.4354 20.625C12.559 20.81 12.625 21.0275 12.625 21.25C12.6254 21.3978 12.5965 21.5443 12.5401 21.681C12.4837 21.8176 12.4009 21.9418 12.2963 22.0463C12.1918 22.1509 12.0676 22.2337 11.931 22.2901C11.7943 22.3465 11.6478 22.3754 11.5 22.375V22.375ZM22 21.625C22 21.7245 21.9605 21.8198 21.8902 21.8902C21.8198 21.9605 21.7245 22 21.625 22H14.875C14.7755 22 14.6802 21.9605 14.6098 21.8902C14.5395 21.8198 14.5 21.7245 14.5 21.625V20.875C14.5 20.7755 14.5395 20.6802 14.6098 20.6098C14.6802 20.5395 14.7755 20.5 14.875 20.5H21.625C21.7245 20.5 21.8198 20.5395 21.8902 20.6098C21.9605 20.6802 22 20.7755 22 20.875V21.625ZM22 17.125C22 17.3313 21.7984 17.5 21.55 17.5H14.2234L15.7375 16H21.55C21.7984 16 22 16.1687 22 16.375V17.125Z" fill="#FFB401"/>
<path d="M11.5 20.125C11.2775 20.125 11.06 20.191 10.875 20.3146C10.69 20.4382 10.5458 20.6139 10.4606 20.8195C10.3755 21.025 10.3532 21.2512 10.3966 21.4695C10.44 21.6877 10.5472 21.8882 10.7045 22.0455C10.8618 22.2028 11.0623 22.31 11.2805 22.3534C11.4988 22.3968 11.725 22.3745 11.9305 22.2894C12.1361 22.2042 12.3118 22.06 12.4354 21.875C12.559 21.69 12.625 21.4725 12.625 21.25C12.6254 21.1022 12.5965 20.9557 12.5401 20.819C12.4837 20.6824 12.4009 20.5582 12.2963 20.4537C12.1918 20.3491 12.0676 20.2663 11.931 20.2099C11.7943 20.1535 11.6478 20.1246 11.5 20.125V20.125ZM14.5797 13.4875C14.5563 13.4641 14.5285 13.4455 14.498 13.4328C14.4674 13.4202 14.4347 13.4136 14.4016 13.4136C14.3685 13.4136 14.3357 13.4202 14.3051 13.4328C14.2746 13.4455 14.2468 13.4641 14.2234 13.4875L11.9922 15.7L11.0266 14.725C11.0032 14.7016 10.9754 14.683 10.9449 14.6703C10.9143 14.6577 10.8815 14.6511 10.8484 14.6511C10.8153 14.6511 10.7826 14.6577 10.752 14.6703C10.7215 14.683 10.6937 14.7016 10.6703 14.725L10.075 15.3156C10.0516 15.339 10.033 15.3668 10.0203 15.3973C10.0077 15.4279 10.0011 15.4607 10.0011 15.4937C10.0011 15.5268 10.0077 15.5596 10.0203 15.5902C10.033 15.6207 10.0516 15.6485 10.075 15.6719L11.8047 17.4203C11.8281 17.4437 11.8558 17.4623 11.8864 17.475C11.917 17.4876 11.9497 17.4942 11.9828 17.4942C12.0159 17.4942 12.0487 17.4876 12.0792 17.475C12.1098 17.4623 12.1376 17.4437 12.1609 17.4203L15.1703 14.4391C15.1937 14.4157 15.2123 14.3879 15.225 14.3574C15.2376 14.3268 15.2442 14.294 15.2442 14.2609C15.2442 14.2278 15.2376 14.1951 15.225 14.1645C15.2123 14.134 15.1937 14.1062 15.1703 14.0828L14.5797 13.4875ZM19 7C19 6.20435 18.6839 5.44129 18.1213 4.87868C17.5587 4.31607 16.7956 4 16 4C15.2044 4 14.4413 4.31607 13.8787 4.87868C13.3161 5.44129 13 6.20435 13 7C12.2044 7 11.4413 7.31607 10.8787 7.87868C10.3161 8.44129 10 9.20435 10 10H22C22 9.20435 21.6839 8.44129 21.1213 7.87868C20.5587 7.31607 19.7956 7 19 7ZM16 8.125C15.7775 8.125 15.56 8.05902 15.375 7.9354C15.19 7.81179 15.0458 7.63609 14.9606 7.43052C14.8755 7.22495 14.8532 6.99875 14.8966 6.78052C14.94 6.56229 15.0472 6.36184 15.2045 6.2045C15.3618 6.04717 15.5623 5.94003 15.7805 5.89662C15.9988 5.85321 16.225 5.87549 16.4305 5.96064C16.6361 6.04578 16.8118 6.18998 16.9354 6.37498C17.059 6.55999 17.125 6.7775 17.125 7C17.1254 7.14784 17.0965 7.2943 17.0401 7.43096C16.9837 7.56762 16.9009 7.69178 16.7963 7.79632C16.6918 7.90086 16.5676 7.98372 16.431 8.04012C16.2943 8.09653 16.1478 8.12537 16 8.125V8.125Z" fill="#E74C3C"/>
</svg>
