<svg width="32" height="32" viewBox="0 0 32 32" fill="none" xmlns="http://www.w3.org/2000/svg">
<path opacity="0.4" d="M6 13V25.75C6 26.3467 6.23705 26.919 6.65901 27.341C7.08097 27.7629 7.65326 28 8.25 28H24.75C25.3467 28 25.919 27.7629 26.341 27.341C26.7629 26.919 27 26.3467 27 25.75V13H6ZM12 24.4375C12 24.5867 11.9407 24.7298 11.8352 24.8352C11.7298 24.9407 11.5867 25 11.4375 25H9.5625C9.41332 25 9.27024 24.9407 9.16475 24.8352C9.05926 24.7298 9 24.5867 9 24.4375V22.5625C9 22.4133 9.05926 22.2702 9.16475 22.1648C9.27024 22.0593 9.41332 22 9.5625 22H11.4375C11.5867 22 11.7298 22.0593 11.8352 22.1648C11.9407 22.2702 12 22.4133 12 22.5625V24.4375ZM12 18.4375C12 18.5867 11.9407 18.7298 11.8352 18.8352C11.7298 18.9407 11.5867 19 11.4375 19H9.5625C9.41332 19 9.27024 18.9407 9.16475 18.8352C9.05926 18.7298 9 18.5867 9 18.4375V16.5625C9 16.4133 9.05926 16.2702 9.16475 16.1648C9.27024 16.0593 9.41332 16 9.5625 16H11.4375C11.5867 16 11.7298 16.0593 11.8352 16.1648C11.9407 16.2702 12 16.4133 12 16.5625V18.4375ZM18 24.4375C18 24.5867 17.9407 24.7298 17.8352 24.8352C17.7298 24.9407 17.5867 25 17.4375 25H15.5625C15.4133 25 15.2702 24.9407 15.1648 24.8352C15.0593 24.7298 15 24.5867 15 24.4375V22.5625C15 22.4133 15.0593 22.2702 15.1648 22.1648C15.2702 22.0593 15.4133 22 15.5625 22H17.4375C17.5867 22 17.7298 22.0593 17.8352 22.1648C17.9407 22.2702 18 22.4133 18 22.5625V24.4375ZM18 18.4375C18 18.5867 17.9407 18.7298 17.8352 18.8352C17.7298 18.9407 17.5867 19 17.4375 19H15.5625C15.4133 19 15.2702 18.9407 15.1648 18.8352C15.0593 18.7298 15 18.5867 15 18.4375V16.5625C15 16.4133 15.0593 16.2702 15.1648 16.1648C15.2702 16.0593 15.4133 16 15.5625 16H17.4375C17.5867 16 17.7298 16.0593 17.8352 16.1648C17.9407 16.2702 18 16.4133 18 16.5625V18.4375ZM24 24.4375C24 24.5867 23.9407 24.7298 23.8352 24.8352C23.7298 24.9407 23.5867 25 23.4375 25H21.5625C21.4133 25 21.2702 24.9407 21.1648 24.8352C21.0593 24.7298 21 24.5867 21 24.4375V22.5625C21 22.4133 21.0593 22.2702 21.1648 22.1648C21.2702 22.0593 21.4133 22 21.5625 22H23.4375C23.5867 22 23.7298 22.0593 23.8352 22.1648C23.9407 22.2702 24 22.4133 24 22.5625V24.4375ZM24 18.4375C24 18.5867 23.9407 18.7298 23.8352 18.8352C23.7298 18.9407 23.5867 19 23.4375 19H21.5625C21.4133 19 21.2702 18.9407 21.1648 18.8352C21.0593 18.7298 21 18.5867 21 18.4375V16.5625C21 16.4133 21.0593 16.2702 21.1648 16.1648C21.2702 16.0593 21.4133 16 21.5625 16H23.4375C23.5867 16 23.7298 16.0593 23.8352 16.1648C23.9407 16.2702 24 16.4133 24 16.5625V18.4375ZM20.25 10H21.75C21.9489 10 22.1397 9.92098 22.2803 9.78033C22.421 9.63968 22.5 9.44891 22.5 9.25V4.75C22.5 4.55109 22.421 4.36032 22.2803 4.21967C22.1397 4.07902 21.9489 4 21.75 4H20.25C20.0511 4 19.8603 4.07902 19.7197 4.21967C19.579 4.36032 19.5 4.55109 19.5 4.75V9.25C19.5 9.44891 19.579 9.63968 19.7197 9.78033C19.8603 9.92098 20.0511 10 20.25 10ZM11.25 10H12.75C12.9489 10 13.1397 9.92098 13.2803 9.78033C13.421 9.63968 13.5 9.44891 13.5 9.25V4.75C13.5 4.55109 13.421 4.36032 13.2803 4.21967C13.1397 4.07902 12.9489 4 12.75 4H11.25C11.0511 4 10.8603 4.07902 10.7197 4.21967C10.579 4.36032 10.5 4.55109 10.5 4.75V9.25C10.5 9.44891 10.579 9.63968 10.7197 9.78033C10.8603 9.92098 11.0511 10 11.25 10Z" fill="#FFB401"/>
<path d="M27 9.25V13H6V9.25C6 8.65326 6.23705 8.08097 6.65901 7.65901C7.08097 7.23705 7.65326 7 8.25 7H10.5V9.25C10.5 9.44891 10.579 9.63968 10.7197 9.78033C10.8603 9.92098 11.0511 10 11.25 10H12.75C12.9489 10 13.1397 9.92098 13.2803 9.78033C13.421 9.63968 13.5 9.44891 13.5 9.25V7H19.5V9.25C19.5 9.44891 19.579 9.63968 19.7197 9.78033C19.8603 9.92098 20.0511 10 20.25 10H21.75C21.9489 10 22.1397 9.92098 22.2803 9.78033C22.421 9.63968 22.5 9.44891 22.5 9.25V7H24.75C25.3467 7 25.919 7.23705 26.341 7.65901C26.7629 8.08097 27 8.65326 27 9.25V9.25Z" fill="#E74C3C"/>
</svg>
