<svg width="32" height="32" viewBox="0 0 32 32" fill="none" xmlns="http://www.w3.org/2000/svg">
<path opacity="0.4" d="M4.62788 22.823C4.22584 23.2252 4 23.7707 4 24.3394C4 24.9081 4.22584 25.4535 4.62788 25.8557L6.14425 27.3721C6.54649 27.7742 7.09192 28 7.66063 28C8.22933 28 8.77476 27.7742 9.177 27.3721L16 20.5491L11.4509 16L4.62788 22.823ZM27.3721 6.14425L25.8557 4.62788C25.4535 4.22584 24.9081 4 24.3394 4C23.7707 4 23.2252 4.22584 22.823 4.62788L16 11.4509L20.5491 16L27.3721 9.177C27.7742 8.77476 28 8.22933 28 7.66063C28 7.09192 27.7742 6.54649 27.3721 6.14425Z" fill="#FFB401"/>
<path d="M27.3721 22.823C27.7742 23.2252 28 23.7707 28 24.3394C28 24.9081 27.7742 25.4535 27.3721 25.8557L25.8557 27.3721C25.4535 27.7742 24.9081 28 24.3394 28C23.7707 28 23.2252 27.7742 22.823 27.3721L4.62788 9.177C4.22584 8.77476 4 8.22933 4 7.66063C4 7.09192 4.22584 6.54649 4.62788 6.14425L6.14425 4.62788C6.54649 4.22584 7.09192 4 7.66063 4C8.22933 4 8.77476 4.22584 9.177 4.62788L27.3721 22.823Z" fill="#E74C3C"/>
</svg>
