<svg width="33" height="32" viewBox="0 0 33 32" fill="none" xmlns="http://www.w3.org/2000/svg">
<path opacity="0.4" d="M17.0294 22H16.9706C15.0894 22 13.195 20.5363 11.8119 19.4675C11.5869 19.2938 2.54813 12.6688 1 11.4581V25C1 25.7956 1.31607 26.5587 1.87868 27.1213C2.44129 27.6839 3.20435 28 4 28H30C30.7956 28 31.5587 27.6839 32.1213 27.1213C32.6839 26.5587 33 25.7956 33 25V11.46C31.4713 12.6581 22.4125 19.2938 22.1875 19.4675C20.805 20.5363 18.9106 22 17.0294 22ZM30 4H4C3.20435 4 2.44129 4.31607 1.87868 4.87868C1.31607 5.44129 1 6.20435 1 7L1 8.1875C1.00031 8.41505 1.05221 8.63958 1.1518 8.84418C1.2514 9.04878 1.39609 9.22813 1.575 9.36875C3.4875 10.8625 4.11875 11.3938 12.4125 17.4125C13.4625 18.175 15.55 20.025 17 20C18.45 20.025 20.5375 18.175 21.5875 17.4125C29.8812 11.3938 30.5125 10.8687 32.425 9.36875C32.6044 9.22861 32.7495 9.04935 32.8491 8.84464C32.9488 8.63993 33.0004 8.41517 33 8.1875V7C33 6.20435 32.6839 5.44129 32.1213 4.87868C31.5587 4.31607 30.7956 4 30 4V4Z" fill="#FFB401"/>
<path d="M33 8.1875V11.46C31.4713 12.6581 22.4125 19.2938 22.1875 19.4675C20.805 20.5363 18.9106 22 17.0294 22H16.9706C15.0894 22 13.195 20.5363 11.8119 19.4675C11.5869 19.2938 2.54813 12.6688 1 11.4581V8.1875C1.00031 8.41505 1.05221 8.63958 1.1518 8.84418C1.2514 9.04878 1.39609 9.22813 1.575 9.36875C3.4875 10.8625 4.11875 11.3938 12.4125 17.4125C13.4556 18.17 15.5219 20 16.9706 20H17.0294C18.4781 20 20.5444 18.17 21.5875 17.4125C29.8812 11.3938 30.5125 10.8687 32.425 9.36875C32.6044 9.22861 32.7495 9.04935 32.8491 8.84464C32.9488 8.63993 33.0004 8.41517 33 8.1875V8.1875Z" fill="#E74C3C"/>
</svg>
