<svg width="20" height="20" viewBox="0 0 24 24" fill="none" xmlns="http://www.w3.org/2000/svg">
<path d="M21.8122 18.7183L3.12527 4.10968C3.07402 4.06865 3.01518 4.03811 2.95212 4.01981C2.88906 4.00151 2.82302 3.99581 2.75776 4.00304C2.6925 4.01026 2.6293 4.03027 2.57177 4.06192C2.51425 4.09357 2.46352 4.13624 2.42248 4.18749L2.10999 4.5778C2.06886 4.62907 2.03824 4.68795 2.01988 4.75107C2.00153 4.81419 1.9958 4.8803 2.00303 4.94564C2.01026 5.01097 2.0303 5.07424 2.062 5.13182C2.09371 5.1894 2.13645 5.24017 2.1878 5.28121L20.8747 19.8898C20.926 19.9309 20.9848 19.9614 21.0479 19.9797C21.1109 19.998 21.177 20.0037 21.2422 19.9965C21.3075 19.9892 21.3707 19.9692 21.4282 19.9376C21.4858 19.9059 21.5365 19.8633 21.5775 19.812L21.89 19.4217C21.9311 19.3704 21.9618 19.3116 21.9801 19.2484C21.9985 19.1853 22.0042 19.1192 21.997 19.0539C21.9897 18.9885 21.9697 18.9253 21.938 18.8677C21.9063 18.8101 21.8635 18.7593 21.8122 18.7183V18.7183ZM11.2747 8.57705L15.4868 11.8701C15.4174 9.997 13.8899 8.49986 12 8.49986C11.7562 8.50032 11.5131 8.52619 11.2747 8.57705ZM12.7253 15.4228L8.51323 12.1298C8.58292 14.0025 10.1104 15.4996 12 15.4996C12.2438 15.4991 12.4868 15.4734 12.7253 15.4228V15.4228ZM12 7.49989C15.0827 7.49989 17.9089 9.21859 19.4351 11.9998C19.061 12.6842 18.5987 13.3167 18.0601 13.8809L19.2395 14.8028C19.8961 14.1004 20.4524 13.3105 20.8925 12.4557C20.964 12.3143 21.0013 12.158 21.0013 11.9996C21.0013 11.8412 20.964 11.6849 20.8925 11.5435C19.1963 8.23706 15.8414 5.99994 12 5.99994C10.8532 5.99994 9.75913 6.21868 8.73041 6.58773L10.1807 7.72176C10.7725 7.58739 11.3788 7.49989 12 7.49989ZM12 16.4996C8.91728 16.4996 6.09143 14.7809 4.56491 11.9998C4.93952 11.3153 5.40231 10.6829 5.94144 10.1189L4.7621 9.19703C4.1056 9.89934 3.54941 10.6891 3.10933 11.5438C3.03785 11.6852 3.0006 11.8415 3.0006 11.9999C3.0006 12.1584 3.03785 12.3146 3.10933 12.456C4.80397 15.7625 8.15887 17.9996 12 17.9996C13.1468 17.9996 14.2409 17.7793 15.2696 17.4118L13.8193 16.2781C13.2275 16.4121 12.6215 16.4996 12 16.4996Z" fill="#737373"/>
</svg>
