<svg width="20" height="20" viewBox="0 0 24 24" fill="none" xmlns="http://www.w3.org/2000/svg">
<path d="M20.125 5H3.875C2.83945 5 2 5.83945 2 6.875V18.125C2 19.1605 2.83945 20 3.875 20H20.125C21.1605 20 22 19.1605 22 18.125V6.875C22 5.83945 21.1605 5 20.125 5ZM20.125 6.875V8.46895C19.2491 9.18219 17.8528 10.2913 14.8677 12.6287C14.2098 13.1462 12.9067 14.3893 12 14.3748C11.0934 14.3895 9.78988 13.146 9.1323 12.6287C6.14766 10.2916 4.75098 9.1823 3.875 8.46895V6.875H20.125ZM3.875 18.125V10.8749C4.77008 11.5879 6.03941 12.5883 7.97414 14.1033C8.82793 14.7754 10.3231 16.259 12 16.25C13.6686 16.259 15.1449 14.7969 16.0255 14.1036C17.9602 12.5886 19.2299 11.5879 20.125 10.875V18.125H3.875Z" fill="#737373"/>
</svg>
