<svg width="32" height="32" viewBox="0 0 32 32" fill="none" xmlns="http://www.w3.org/2000/svg">
<path opacity="0.4" d="M9.67493 23.4998C8.98755 26.2409 7.93359 28 6.75 28C4.67889 28 3 22.6274 3 16C3 9.37259 4.67889 4 6.75 4C8.26941 4 9.57458 6.89664 10.1638 11.0535C9.685 11.5801 9.61157 12.3726 10.0605 12.9563C10.157 13.071 10.2705 13.1702 10.3971 13.2503C10.4621 14.1347 10.5 15.0522 10.5 16C10.5023 17.5042 10.4105 19.007 10.225 20.4997H9C8.60249 20.5002 8.22143 20.6585 7.94052 20.9397C7.65961 21.221 7.50183 21.6023 7.50183 21.9998C7.50183 22.3973 7.65961 22.7785 7.94052 23.0598C8.22143 23.3411 8.60249 23.4993 9 23.4998H9.67493Z" fill="#FFB401"/>
<path d="M20.2499 8.50013C20.6949 8.50013 21.1299 8.36818 21.5 8.12094C21.87 7.87371 22.1584 7.5223 22.3287 7.11116C22.499 6.70001 22.5436 6.2476 22.4567 5.81113C22.3699 5.37466 22.1556 4.97373 21.841 4.65905C21.5263 4.34438 21.1254 4.13008 20.6889 4.04326C20.2524 3.95645 19.8 4.00101 19.3889 4.17132C18.9777 4.34162 18.6263 4.63002 18.3791 5.00005C18.1318 5.37007 17.9999 5.8051 17.9999 6.25013C17.9999 6.84685 18.237 7.41913 18.6589 7.84108C19.0809 8.26303 19.6532 8.5001 20.2499 8.50013ZM12.829 18.8818L12.1346 20.4998H8.99988C8.60237 20.5003 8.22131 20.6585 7.9404 20.9398C7.65949 21.221 7.50171 21.6023 7.50171 21.9998C7.50171 22.3973 7.65949 22.7786 7.9404 23.0598C8.22131 23.3411 8.60237 23.4994 8.99988 23.4999H12.6298C13.0702 23.5004 13.501 23.3715 13.8688 23.1292C14.2365 22.8868 14.5249 22.5417 14.6981 22.1368L15.1097 21.1743L14.6102 20.8792C13.8265 20.4109 13.2049 19.7139 12.829 18.8818ZM25.4999 14.4996H23.4359L22.2142 12.0034C21.6283 10.8059 20.5516 9.93064 19.3182 9.6157L15.9872 8.62464C15.3354 8.46665 14.6565 8.45683 14.0004 8.59589C13.3443 8.73496 12.7278 9.01937 12.1962 9.4282L10.3387 10.8535C10.0231 11.0955 9.81649 11.453 9.76442 11.8474C9.73864 12.0427 9.75157 12.2411 9.80248 12.4314C9.85339 12.6216 9.94127 12.8 10.0611 12.9563C10.181 13.1126 10.3304 13.2438 10.501 13.3423C10.6715 13.4409 10.8598 13.5049 11.055 13.5306C11.4494 13.5827 11.8483 13.476 12.1639 13.234L14.0243 11.8086C14.3832 11.5324 14.8417 11.4336 15.2079 11.5207L15.8964 11.7258L14.1415 15.8224C13.8561 16.4929 13.8239 17.2441 14.0507 17.9366C14.2776 18.629 14.7481 19.2155 15.3749 19.5872L19.3563 21.9391L18.0702 26.051C18.0111 26.2388 17.9897 26.4365 18.007 26.6326C18.0244 26.8288 18.0802 27.0196 18.1714 27.1941C18.2625 27.3687 18.3872 27.5235 18.5382 27.6499C18.6893 27.7762 18.8637 27.8716 19.0516 27.9305C19.2397 27.9899 19.4376 28.0116 19.634 27.9943C19.8305 27.977 20.0215 27.9211 20.1963 27.8297C20.3711 27.7384 20.5261 27.6134 20.6524 27.462C20.7787 27.3106 20.8739 27.1357 20.9325 26.9475L22.4149 22.2101C22.5495 21.7327 22.5231 21.2244 22.3399 20.7636C22.1567 20.3027 21.8268 19.915 21.4012 19.6604L18.5302 17.9662L19.9979 14.2967L20.9486 16.2392C21.1349 16.6163 21.4226 16.934 21.7794 17.1566C22.1362 17.3793 22.548 17.4981 22.9686 17.4997H25.4999C25.8977 17.4997 26.2793 17.3416 26.5606 17.0603C26.8419 16.779 26.9999 16.3975 26.9999 15.9996C26.9999 15.6018 26.8419 15.2202 26.5606 14.9389C26.2793 14.6576 25.8977 14.4996 25.4999 14.4996V14.4996Z" fill="#E74C3C"/>
</svg>
