<svg width="26" height="26" viewBox="0 0 56 64" fill="none" xmlns="http://www.w3.org/2000/svg">
<path opacity="0.4" d="M0 24V58C0 59.5913 0.632141 61.1174 1.75736 62.2426C2.88258 63.3679 4.4087 64 6 64H50C51.5913 64 53.1174 63.3679 54.2426 62.2426C55.3679 61.1174 56 59.5913 56 58V24H0ZM24.5225 30H31.4C31.597 30 31.792 30.0388 31.974 30.1142C32.156 30.1896 32.3214 30.3001 32.4607 30.4393C32.5999 30.5786 32.7104 30.744 32.7858 30.926C32.8612 31.108 32.9 31.303 32.9 31.5V31.6038L32 45.6037C31.9737 45.9833 31.8041 46.3387 31.5256 46.598C31.2471 46.8572 30.8805 47.0009 30.5 47H25.5C25.1189 47.0008 24.7518 46.8566 24.4732 46.5966C24.1946 46.3366 24.0254 45.9802 24 45.6L23.1 31.6C23.0882 31.4015 23.1156 31.2026 23.1807 31.0147C23.2458 30.8268 23.3473 30.6536 23.4795 30.505C23.6116 30.3564 23.7717 30.2353 23.9507 30.1487C24.1297 30.062 24.324 30.0115 24.5225 30ZM28 59C27.0111 59 26.0444 58.7068 25.2221 58.1573C24.3999 57.6079 23.759 56.827 23.3806 55.9134C23.0022 54.9998 22.9031 53.9945 23.0961 53.0245C23.289 52.0546 23.7652 51.1637 24.4645 50.4645C25.1637 49.7652 26.0546 49.289 27.0245 49.0961C27.9945 48.9031 28.9998 49.0022 29.9134 49.3806C30.827 49.759 31.6079 50.3999 32.1573 51.2221C32.7068 52.0444 33 53.0111 33 54C33 55.3261 32.4732 56.5979 31.5355 57.5355C30.5979 58.4732 29.3261 59 28 59ZM14 16H18C18.5304 16 19.0391 15.7893 19.4142 15.4142C19.7893 15.0391 20 14.5304 20 14V2C20 1.46957 19.7893 0.960859 19.4142 0.585786C19.0391 0.210714 18.5304 0 18 0L14 0C13.4696 0 12.9609 0.210714 12.5858 0.585786C12.2107 0.960859 12 1.46957 12 2V14C12 14.5304 12.2107 15.0391 12.5858 15.4142C12.9609 15.7893 13.4696 16 14 16ZM38 16H42C42.5304 16 43.0391 15.7893 43.4142 15.4142C43.7893 15.0391 44 14.5304 44 14V2C44 1.46957 43.7893 0.960859 43.4142 0.585786C43.0391 0.210714 42.5304 0 42 0L38 0C37.4696 0 36.9609 0.210714 36.5858 0.585786C36.2107 0.960859 36 1.46957 36 2V14C36 14.5304 36.2107 15.0391 36.5858 15.4142C36.9609 15.7893 37.4696 16 38 16Z" fill="#FFB401"/>
<path d="M28 49C27.0111 49 26.0444 49.2932 25.2221 49.8427C24.3999 50.3921 23.759 51.173 23.3806 52.0866C23.0022 53.0002 22.9031 54.0055 23.0961 54.9755C23.289 55.9454 23.7652 56.8363 24.4645 57.5355C25.1637 58.2348 26.0546 58.711 27.0245 58.9039C27.9945 59.0969 28.9998 58.9978 29.9134 58.6194C30.827 58.241 31.6079 57.6001 32.1573 56.7779C32.7068 55.9556 33 54.9889 33 54C33 52.6739 32.4732 51.4021 31.5355 50.4645C30.5979 49.5268 29.3261 49 28 49ZM25.5 47H30.5C30.8811 47.0008 31.2482 46.8566 31.5268 46.5966C31.8054 46.3366 31.9746 45.9802 32 45.6L32.9 31.6C32.9136 31.4029 32.8881 31.2051 32.825 31.0179C32.7619 30.8307 32.6625 30.6578 32.5324 30.5091C32.4023 30.3605 32.2442 30.239 32.067 30.1516C31.8898 30.0642 31.6971 30.0127 31.5 30H24.6C24.1993 30.0033 23.8163 30.1655 23.535 30.4509C23.2538 30.7364 23.0973 31.1218 23.1 31.5225V31.6L24 45.6C24.0254 45.9802 24.1946 46.3366 24.4732 46.5966C24.7518 46.8566 25.1189 47.0008 25.5 47ZM50 8H44V14C44 14.5304 43.7893 15.0391 43.4142 15.4142C43.0391 15.7893 42.5304 16 42 16H38C37.4696 16 36.9609 15.7893 36.5858 15.4142C36.2107 15.0391 36 14.5304 36 14V8H20V14C20 14.5304 19.7893 15.0391 19.4142 15.4142C19.0391 15.7893 18.5304 16 18 16H14C13.4696 16 12.9609 15.7893 12.5858 15.4142C12.2107 15.0391 12 14.5304 12 14V8H6C4.4087 8 2.88258 8.63214 1.75736 9.75736C0.632141 10.8826 0 12.4087 0 14L0 24H56V14C56 12.4087 55.3679 10.8826 54.2426 9.75736C53.1174 8.63214 51.5913 8 50 8Z" fill="#E74C3C"/>
</svg>
