<svg width="32" height="32" viewBox="0 0 32 32" fill="none" xmlns="http://www.w3.org/2000/svg">
<path opacity="0.4" d="M21.5 10C21.5 11.1867 21.1481 12.3467 20.4888 13.3334C19.8295 14.3201 18.8925 15.0892 17.7961 15.5433C16.6997 15.9974 15.4933 16.1162 14.3295 15.8847C13.1656 15.6532 12.0965 15.0818 11.2574 14.2426C10.4182 13.4035 9.8468 12.3344 9.61529 11.1705C9.38378 10.0067 9.5026 8.80026 9.95673 7.7039C10.4109 6.60754 11.1799 5.67047 12.1666 5.01118C13.1533 4.35189 14.3133 4 15.5 4C17.0913 4 18.6174 4.63214 19.7426 5.75736C20.8679 6.88258 21.5 8.4087 21.5 10Z" fill="#FFB401"/>
<path d="M19.7 17.5H18.9172C17.8457 17.994 16.6799 18.2499 15.5 18.2499C14.3201 18.2499 13.1543 17.994 12.0828 17.5H11.3C9.62925 17.5004 8.02704 18.1642 6.84564 19.3456C5.66424 20.527 5.00037 22.1293 5 23.8V25.75C5 26.3467 5.23705 26.919 5.65901 27.341C6.08097 27.7629 6.65326 28 7.25 28H23.75C24.3467 28 24.919 27.7629 25.341 27.341C25.7629 26.919 26 26.3467 26 25.75V23.8C25.9996 22.1293 25.3358 20.527 24.1544 19.3456C22.973 18.1642 21.3708 17.5004 19.7 17.5Z" fill="#E74C3C"/>
</svg>
