<svg width="26" height="26" viewBox="0 0 32 32" fill="none" xmlns="http://www.w3.org/2000/svg">
<path d="M25 19.375C25 19.6734 24.8815 19.9595 24.6705 20.1705C24.4595 20.3815 24.1734 20.5 23.875 20.5H17.5V13.75C17.5 13.5511 17.421 13.3603 17.2803 13.2197C17.1397 13.079 16.9489 13 16.75 13H15.25C15.0511 13 14.8603 13.079 14.7197 13.2197C14.579 13.3603 14.5 13.5511 14.5 13.75V20.5H8.125C7.82663 20.5 7.54048 20.3815 7.3295 20.1705C7.11853 19.9595 7 19.6734 7 19.375C7 16.9966 8.75641 15.1009 11.0312 14.0439L11.6036 8.5H9.625C9.32663 8.5 9.04048 8.38147 8.8295 8.1705C8.61853 7.95952 8.5 7.67337 8.5 7.375V5.125C8.5 4.82663 8.61853 4.54048 8.8295 4.3295C9.04048 4.11853 9.32663 4 9.625 4H22.375C22.6734 4 22.9595 4.11853 23.1705 4.3295C23.3815 4.54048 23.5 4.82663 23.5 5.125V7.375C23.5 7.67337 23.3815 7.95952 23.1705 8.1705C22.9595 8.38147 22.6734 8.5 22.375 8.5H20.3964L20.9688 14.0439C23.2188 15.0897 25 16.9759 25 19.375Z" fill="#E74C3C"/>
<path opacity="0.4" d="M17.5 13.75V25.375C17.5 25.4331 17.4865 25.4904 17.4606 25.5423L16.3356 27.7923C16.3045 27.8547 16.2566 27.9072 16.1974 27.9439C16.1381 27.9806 16.0697 28.0001 16 28.0001C15.9303 28.0001 15.8619 27.9806 15.8026 27.9439C15.7434 27.9072 15.6955 27.8547 15.6644 27.7923L14.5394 25.5423C14.5135 25.4904 14.5 25.4331 14.5 25.375V13.75C14.5 13.5511 14.579 13.3603 14.7197 13.2197C14.8603 13.079 15.0511 13 15.25 13H16.75C16.9489 13 17.1397 13.079 17.2803 13.2197C17.421 13.3603 17.5 13.5511 17.5 13.75Z" fill="#FFB401"/>
</svg>
