<svg width="26" height="26" viewBox="0 0 32 32" fill="none" xmlns="http://www.w3.org/2000/svg">
<path opacity="0.4" d="M13.75 7.75C15.1381 7.75001 16.4833 8.23133 17.5564 9.11196C18.6294 9.99258 19.3639 11.218 19.6347 12.5795C19.9055 13.9409 19.6958 15.3542 19.0415 16.5784C18.3871 17.8026 17.3285 18.7621 16.046 19.2933C14.7636 19.8245 13.3366 19.8946 12.0082 19.4916C10.6799 19.0887 9.53234 18.2376 8.76114 17.0834C7.98994 15.9292 7.6428 14.5433 7.77886 13.1619C7.91493 11.7804 8.52578 10.4889 9.50734 9.50734C10.0632 8.94842 10.7244 8.50531 11.4526 8.20366C12.1809 7.90201 12.9617 7.74781 13.75 7.75ZM13.75 4C8.365 4 4 8.365 4 13.75C4 19.135 8.365 23.5 13.75 23.5C19.135 23.5 23.5 19.135 23.5 13.75C23.5 8.365 19.135 4 13.75 4Z" fill="#FFB401"/>
<path d="M27.6672 26.3453L26.3406 27.6718C26.2365 27.7766 26.1127 27.8597 25.9764 27.9164C25.84 27.9731 25.6938 28.0023 25.5461 28.0023C25.3984 28.0023 25.2522 27.9731 25.1158 27.9164C24.9795 27.8597 24.8557 27.7766 24.7516 27.6718L20.0781 22.9984C19.9737 22.8936 19.891 22.7693 19.8347 22.6326C19.7784 22.4959 19.7496 22.3494 19.75 22.2015V21.4374L21.4375 19.7499H22.2016C22.3494 19.7496 22.4959 19.7784 22.6327 19.8347C22.7694 19.891 22.8937 19.9737 22.9984 20.0781L27.6719 24.7515C27.8818 24.9639 27.9992 25.2507 27.9983 25.5494C27.9974 25.848 27.8784 26.1341 27.6672 26.3453Z" fill="#E74C3C"/>
</svg>
