<svg width="32" height="32" viewBox="0 0 32 32" fill="none" xmlns="http://www.w3.org/2000/svg">
<path d="M6 13V25.75C6 26.3467 6.23705 26.919 6.65901 27.341C7.08097 27.7629 7.65326 28 8.25 28H24.75C25.3467 28 25.919 27.7629 26.341 27.341C26.7629 26.919 27 26.3467 27 25.75V13H6ZM15 21.25C15 21.4489 14.921 21.6397 14.7803 21.7803C14.6397 21.921 14.4489 22 14.25 22H9.75C9.55109 22 9.36032 21.921 9.21967 21.7803C9.07902 21.6397 9 21.4489 9 21.25V16.75C9 16.5511 9.07902 16.3603 9.21967 16.2197C9.36032 16.079 9.55109 16 9.75 16H14.25C14.4489 16 14.6397 16.079 14.7803 16.2197C14.921 16.3603 15 16.5511 15 16.75V21.25ZM20.25 10H21.75C21.9489 10 22.1397 9.92098 22.2803 9.78033C22.421 9.63968 22.5 9.44891 22.5 9.25V4.75C22.5 4.55109 22.421 4.36032 22.2803 4.21967C22.1397 4.07902 21.9489 4 21.75 4H20.25C20.0511 4 19.8603 4.07902 19.7197 4.21967C19.579 4.36032 19.5 4.55109 19.5 4.75V9.25C19.5 9.44891 19.579 9.63968 19.7197 9.78033C19.8603 9.92098 20.0511 10 20.25 10ZM11.25 10H12.75C12.9489 10 13.1397 9.92098 13.2803 9.78033C13.421 9.63968 13.5 9.44891 13.5 9.25V4.75C13.5 4.55109 13.421 4.36032 13.2803 4.21967C13.1397 4.07902 12.9489 4 12.75 4H11.25C11.0511 4 10.8603 4.07902 10.7197 4.21967C10.579 4.36032 10.5 4.55109 10.5 4.75V9.25C10.5 9.44891 10.579 9.63968 10.7197 9.78033C10.8603 9.92098 11.0511 10 11.25 10Z" fill="white"/>
<path d="M27 9.25V13H6V9.25C6 8.65326 6.23705 8.08097 6.65901 7.65901C7.08097 7.23705 7.65326 7 8.25 7H10.5V9.25C10.5 9.44891 10.579 9.63968 10.7197 9.78033C10.8603 9.92098 11.0511 10 11.25 10H12.75C12.9489 10 13.1397 9.92098 13.2803 9.78033C13.421 9.63968 13.5 9.44891 13.5 9.25V7H19.5V9.25C19.5 9.44891 19.579 9.63968 19.7197 9.78033C19.8603 9.92098 20.0511 10 20.25 10H21.75C21.9489 10 22.1397 9.92098 22.2803 9.78033C22.421 9.63968 22.5 9.44891 22.5 9.25V7H24.75C25.3467 7 25.919 7.23705 26.341 7.65901C26.7629 8.08097 27 8.65326 27 9.25V9.25Z" fill="#E74C3C"/>
</svg>
