<svg width="26" height="26" viewBox="0 0 56 64" fill="none" xmlns="http://www.w3.org/2000/svg">
<path opacity="0.4" d="M0 24V58C0 59.5913 0.632141 61.1174 1.75736 62.2426C2.88258 63.3679 4.4087 64 6 64H50C51.5913 64 53.1174 63.3679 54.2426 62.2426C55.3679 61.1174 56 59.5913 56 58V24H0ZM48 42C48 42.5304 47.7893 43.0391 47.4142 43.4142C47.0391 43.7893 46.5304 44 46 44H10C9.46957 44 8.96086 43.7893 8.58579 43.4142C8.21071 43.0391 8 42.5304 8 42V34C8 33.4696 8.21071 32.9609 8.58579 32.5858C8.96086 32.2107 9.46957 32 10 32H46C46.5304 32 47.0391 32.2107 47.4142 32.5858C47.7893 32.9609 48 33.4696 48 34V42ZM38 16H42C42.5304 16 43.0391 15.7893 43.4142 15.4142C43.7893 15.0391 44 14.5304 44 14V2C44 1.46957 43.7893 0.960859 43.4142 0.585786C43.0391 0.210714 42.5304 0 42 0L38 0C37.4696 0 36.9609 0.210714 36.5858 0.585786C36.2107 0.960859 36 1.46957 36 2V14C36 14.5304 36.2107 15.0391 36.5858 15.4142C36.9609 15.7893 37.4696 16 38 16ZM14 16H18C18.5304 16 19.0391 15.7893 19.4142 15.4142C19.7893 15.0391 20 14.5304 20 14V2C20 1.46957 19.7893 0.960859 19.4142 0.585786C19.0391 0.210714 18.5304 0 18 0L14 0C13.4696 0 12.9609 0.210714 12.5858 0.585786C12.2107 0.960859 12 1.46957 12 2V14C12 14.5304 12.2107 15.0391 12.5858 15.4142C12.9609 15.7893 13.4696 16 14 16Z" fill="#FFB401"/>
<path d="M56 14V24H0V14C0 12.4087 0.632141 10.8826 1.75736 9.75736C2.88258 8.63214 4.4087 8 6 8H12V14C12 14.5304 12.2107 15.0391 12.5858 15.4142C12.9609 15.7893 13.4696 16 14 16H18C18.5304 16 19.0391 15.7893 19.4142 15.4142C19.7893 15.0391 20 14.5304 20 14V8H36V14C36 14.5304 36.2107 15.0391 36.5858 15.4142C36.9609 15.7893 37.4696 16 38 16H42C42.5304 16 43.0391 15.7893 43.4142 15.4142C43.7893 15.0391 44 14.5304 44 14V8H50C51.5913 8 53.1174 8.63214 54.2426 9.75736C55.3679 10.8826 56 12.4087 56 14Z" fill="#E74C3C"/>
</svg>
