<svg width="32" height="32" viewBox="0 0 32 32" fill="none" xmlns="http://www.w3.org/2000/svg">
<path d="M20.3557 22H11.6435C11.2976 22.9623 11.1222 23.9775 11.125 25H20.875C20.8777 23.9774 20.7019 22.9622 20.3557 22V22ZM16 13.75C17.9139 13.75 19.556 12.1937 20.3557 10H11.6444C12.4441 12.1937 14.0866 13.75 16 13.75Z" fill="white"/>
<path d="M23.875 7C24.1734 7 24.4595 6.88147 24.6705 6.6705C24.8815 6.45952 25 6.17337 25 5.875V5.125C25 4.82663 24.8815 4.54048 24.6705 4.3295C24.4595 4.11853 24.1734 4 23.875 4H8.125C7.82663 4 7.54048 4.11853 7.3295 4.3295C7.11853 4.54048 7 4.82663 7 5.125V5.875C7 6.17337 7.11853 6.45952 7.3295 6.6705C7.54048 6.88147 7.82663 7 8.125 7C8.125 11.2656 10.5156 14.8623 13.7894 16C10.5156 17.1377 8.125 20.7344 8.125 25C7.82663 25 7.54048 25.1185 7.3295 25.3295C7.11853 25.5405 7 25.8266 7 26.125V26.875C7 27.1734 7.11853 27.4595 7.3295 27.6705C7.54048 27.8815 7.82663 28 8.125 28H23.875C24.1734 28 24.4595 27.8815 24.6705 27.6705C24.8815 27.4595 25 27.1734 25 26.875V26.125C25 25.8266 24.8815 25.5405 24.6705 25.3295C24.4595 25.1185 24.1734 25 23.875 25C23.875 20.7344 21.4844 17.1377 18.2106 16C21.4844 14.8623 23.875 11.2656 23.875 7ZM20.875 25H11.125C11.125 21.3691 13.2906 18.25 16 18.25C18.7094 18.25 20.875 21.3681 20.875 25ZM16 13.75C13.2911 13.75 11.125 10.6319 11.125 7H20.875C20.875 10.6309 18.7094 13.75 16 13.75Z" fill="#E74C3C"/>
</svg>
